RBDS027runT25_grf
version=1
nRows=30
nColumns=19
inDegrees=no
endheader
time	ground_force_r_vx	ground_force_r_vy	ground_force_r_vz	ground_force_r_px	ground_force_r_py	ground_force_r_pz	ground_force_r_mx	ground_force_r_my	ground_force_r_mz	ground_force_l_vx	ground_force_l_vy	ground_force_l_vz	ground_force_l_px	ground_force_l_py	ground_force_l_pz	ground_force_l_mx	ground_force_l_my	ground_force_l_mz
      0.00000000	   -177.22852954	   1362.08965854	     16.25249056	      2.16431364	      0.00000000	      1.02041383	     -0.00000000	     18.38132858	      0.00000000	      0.00000000	      0.00000000	      0.00000000	      0.00000000	      0.00000000	      0.00000000	      0.00000000	      0.00000000	      0.00000000
      0.00100000	   -173.94587986	   1367.57207204	     15.62070180	      2.16277547	      0.00000000	      1.02052316	     -0.00000000	     18.13751694	      0.00000000	      0.00000000	      0.00000000	      0.00000000	      0.00000000	      0.00000000	      0.00000000	      0.00000000	      0.00000000	      0.00000000
      0.00200000	   -170.66323017	   1373.05448554	     14.98891304	      2.16123729	      0.00000000	      1.02063249	     -0.00000000	     17.89370531	      0.00000000	      0.00000000	      0.00000000	      0.00000000	      0.00000000	      0.00000000	      0.00000000	      0.00000000	      0.00000000	      0.00000000
      0.00300000	   -167.38058049	   1378.53689905	     14.35712427	      2.15969911	      0.00000000	      1.02074182	     -0.00000000	     17.64989367	      0.00000000	      0.00000000	      0.00000000	      0.00000000	      0.00000000	      0.00000000	      0.00000000	      0.00000000	      0.00000000	      0.00000000
      0.00400000	   -164.09640476	   1384.00660670	     13.72724648	      2.15815403	      0.00000000	      1.02085053	     -0.00000000	     17.40857317	      0.00000000	      0.00000000	      0.00000000	      0.00000000	      0.00000000	      0.00000000	      0.00000000	      0.00000000	      0.00000000	      0.00000000
      0.00500000	   -160.81146600	   1389.46996143	     13.09832417	      2.15660551	      0.00000000	      1.02095893	     -0.00000000	     17.16849825	      0.00000000	      0.00000000	      0.00000000	      0.00000000	      0.00000000	      0.00000000	      0.00000000	      0.00000000	      0.00000000	      0.00000000
      0.00600000	   -157.52652724	   1394.93331616	     12.46940186	      2.15505698	      0.00000000	      1.02106733	     -0.00000000	     16.92842332	      0.00000000	      0.00000000	      0.00000000	      0.00000000	      0.00000000	      0.00000000	      0.00000000	      0.00000000	      0.00000000	      0.00000000
      0.00700000	   -154.24333966	   1400.36438879	     11.84415116	      2.15350176	      0.00000000	      1.02117502	     -0.00000000	     16.69098449	      0.00000000	      0.00000000	      0.00000000	      0.00000000	      0.00000000	      0.00000000	      0.00000000	      0.00000000	      0.00000000	      0.00000000
      0.00800000	   -150.96365443	   1405.73089724	     11.22624365	      2.15193317	      0.00000000	      1.02128129	     -0.00000000	     16.45881785	      0.00000000	      0.00000000	      0.00000000	      0.00000000	      0.00000000	      0.00000000	      0.00000000	      0.00000000	      0.00000000	      0.00000000
      0.00900000	   -147.68396920	   1411.09740569	     10.60833615	      2.15036457	      0.00000000	      1.02138755	     -0.00000000	     16.22665122	      0.00000000	      0.00000000	      0.00000000	      0.00000000	      0.00000000	      0.00000000	      0.00000000	      0.00000000	      0.00000000	      0.00000000
      0.01000000	   -144.40428396	   1416.46391414	      9.99042865	      2.14879598	      0.00000000	      1.02149382	     -0.00000000	     15.99448458	      0.00000000	      0.00000000	      0.00000000	      0.00000000	      0.00000000	      0.00000000	      0.00000000	      0.00000000	      0.00000000	      0.00000000
      0.01100000	   -141.13473788	   1421.65656143	      9.39272596	      2.14719730	      0.00000000	      1.02159678	     -0.00000000	     15.77403728	      0.00000000	      0.00000000	      0.00000000	      0.00000000	      0.00000000	      0.00000000	      0.00000000	      0.00000000	      0.00000000	      0.00000000
      0.01200000	   -137.86519179	   1426.84920871	      8.79502327	      2.14559862	      0.00000000	      1.02169973	     -0.00000000	     15.55358997	      0.00000000	      0.00000000	      0.00000000	      0.00000000	      0.00000000	      0.00000000	      0.00000000	      0.00000000	      0.00000000	      0.00000000
      0.01300000	   -134.59564570	   1432.04185599	      8.19732059	      2.14399994	      0.00000000	      1.02180269	     -0.00000000	     15.33314267	      0.00000000	      0.00000000	      0.00000000	      0.00000000	      0.00000000	      0.00000000	      0.00000000	      0.00000000	      0.00000000	      0.00000000
      0.01400000	   -131.33441756	   1437.06882171	      7.61987316	      2.14237471	      0.00000000	      1.02190267	     -0.00000000	     15.12271330	      0.00000000	      0.00000000	      0.00000000	      0.00000000	      0.00000000	      0.00000000	      0.00000000	      0.00000000	      0.00000000	      0.00000000
      0.01500000	   -128.07734839	   1442.01294665	      7.05255338	      2.14073622	      0.00000000	      1.02200117	     -0.00000000	     14.91729291	      0.00000000	      0.00000000	      0.00000000	      0.00000000	      0.00000000	      0.00000000	      0.00000000	      0.00000000	      0.00000000	      0.00000000
      0.01600000	   -124.82027922	   1446.95707159	      6.48523359	      2.13909772	      0.00000000	      1.02209967	     -0.00000000	     14.71187251	      0.00000000	      0.00000000	      0.00000000	      0.00000000	      0.00000000	      0.00000000	      0.00000000	      0.00000000	      0.00000000	      0.00000000
      0.01700000	   -121.56737733	   1451.79470461	      5.93170568	      2.13744299	      0.00000000	      1.02219633	     -0.00000000	     14.51235644	      0.00000000	      0.00000000	      0.00000000	      0.00000000	      0.00000000	      0.00000000	      0.00000000	      0.00000000	      0.00000000	      0.00000000
      0.01800000	   -118.32280999	   1456.41935378	      5.40576152	      2.13575579	      0.00000000	      1.02228929	     -0.00000000	     14.32464902	      0.00000000	      0.00000000	      0.00000000	      0.00000000	      0.00000000	      0.00000000	      0.00000000	      0.00000000	      0.00000000	      0.00000000
      0.01900000	   -115.07824265	   1461.04400295	      4.87981736	      2.13406859	      0.00000000	      1.02238225	     -0.00000000	     14.13694160	      0.00000000	      0.00000000	      0.00000000	      0.00000000	      0.00000000	      0.00000000	      0.00000000	      0.00000000	      0.00000000	      0.00000000
      0.02000000	   -111.83367531	   1465.66865212	      4.35387320	      2.13238138	      0.00000000	      1.02247521	     -0.00000000	     13.94923418	      0.00000000	      0.00000000	      0.00000000	      0.00000000	      0.00000000	      0.00000000	      0.00000000	      0.00000000	      0.00000000	      0.00000000
      0.02100000	   -108.59966442	   1469.90767015	      3.88082519	      2.13063782	      0.00000000	      1.02256161	     -0.00000000	     13.78121509	      0.00000000	      0.00000000	      0.00000000	      0.00000000	      0.00000000	      0.00000000	      0.00000000	      0.00000000	      0.00000000	      0.00000000
      0.02200000	   -105.36565353	   1474.14668818	      3.40777718	      2.12889427	      0.00000000	      1.02264802	     -0.00000000	     13.61319601	      0.00000000	      0.00000000	      0.00000000	      0.00000000	      0.00000000	      0.00000000	      0.00000000	      0.00000000	      0.00000000	      0.00000000
      0.02300000	   -102.13164263	   1478.38570621	      2.93472917	      2.12715071	      0.00000000	      1.02273443	     -0.00000000	     13.44517692	      0.00000000	      0.00000000	      0.00000000	      0.00000000	      0.00000000	      0.00000000	      0.00000000	      0.00000000	      0.00000000	      0.00000000
      0.02400000	    -98.90234242	   1482.32727135	      2.50472286	      2.12536553	      0.00000000	      1.02281586	     -0.00000000	     13.29108812	     -0.00000000	      0.00000000	      0.00000000	      0.00000000	      0.00000000	      0.00000000	      0.00000000	      0.00000000	      0.00000000	      0.00000000
      0.02500000	    -95.67539754	   1486.12011005	      2.09623741	      2.12355954	      0.00000000	      1.02289479	     -0.00000000	     13.14396446	     -0.00000000	      0.00000000	      0.00000000	      0.00000000	      0.00000000	      0.00000000	      0.00000000	      0.00000000	      0.00000000	      0.00000000
      0.02600000	    -92.44845267	   1489.91294875	      1.68775195	      2.12175354	      0.00000000	      1.02297373	     -0.00000000	     12.99684079	     -0.00000000	      0.00000000	      0.00000000	      0.00000000	      0.00000000	      0.00000000	      0.00000000	      0.00000000	      0.00000000	      0.00000000
      0.02700000	    -89.22234459	   1493.53892279	      1.30457449	      2.11992530	      0.00000000	      1.02304991	     -0.00000000	     12.85682028	     -0.00000000	      0.00000000	      0.00000000	      0.00000000	      0.00000000	      0.00000000	      0.00000000	      0.00000000	      0.00000000	      0.00000000
      0.02800000	    -85.99791011	   1496.83116751	      0.97201301	      2.11805254	      0.00000000	      1.02312056	     -0.00000000	     12.73100609	     -0.00000000	      0.00000000	      0.00000000	      0.00000000	      0.00000000	      0.00000000	      0.00000000	      0.00000000	      0.00000000	      0.00000000
      0.02900000	    -82.77347563	   1500.12341224	      0.63945153	      2.11617979	      0.00000000	      1.02319121	     -0.00000000	     12.60519189	     -0.00000000	      0.00000000	      0.00000000	      0.00000000	      0.00000000	      0.00000000	      0.00000000	      0.00000000	      0.00000000	      0.00000000
